<svg width="83" height="82" viewBox="0 0 83 82" fill="none" xmlns="http://www.w3.org/2000/svg">
<path d="M20.75 10.25H10.5V20.5M61.75 10.25H72V20.5M20.75 71.75H10.5V61.5M24.1667 61.5V58.0833C24.1667 53.5526 25.9665 49.2073 29.1703 46.0036C32.374 42.7998 36.7192 41 41.25 41M41.25 41C45.7808 41 50.126 42.7998 53.3297 46.0036C56.5335 49.2073 58.3333 53.5526 58.3333 58.0833V61.5M41.25 41C43.9685 41 46.5756 39.9201 48.4978 37.9978C50.4201 36.0756 51.5 33.4685 51.5 30.75C51.5 28.0315 50.4201 25.4244 48.4978 23.5022C46.5756 21.5799 43.9685 20.5 41.25 20.5C38.5315 20.5 35.9244 21.5799 34.0022 23.5022C32.0799 25.4244 31 28.0315 31 30.75C31 33.4685 32.0799 36.0756 34.0022 37.9978C35.9244 39.9201 38.5315 41 41.25 41ZM61.75 71.75H72V61.5" stroke="#00BD78" stroke-width="2.2" stroke-linecap="round" stroke-linejoin="round"/>
</svg>
