<svg width="83" height="82" viewBox="0 0 83 82" fill="none" xmlns="http://www.w3.org/2000/svg">
<path d="M41.2498 52.3604C53.5717 52.3604 63.5606 42.3715 63.5606 30.0496C63.5606 17.7277 53.5717 7.73877 41.2498 7.73877C28.9279 7.73877 18.939 17.7277 18.939 30.0496C18.939 42.3715 28.9279 52.3604 41.2498 52.3604Z" stroke="#00BD78" stroke-width="2.2" stroke-linecap="round" stroke-linejoin="round"/>
<path d="M41.2498 68.0771C53.5717 68.0771 63.5606 65.2931 63.5606 61.8588C63.5606 58.4245 53.5717 55.6404 41.2498 55.6404C28.9279 55.6404 18.939 58.4245 18.939 61.8588C18.939 65.2931 28.9279 68.0771 41.2498 68.0771Z" stroke="#00BD78" stroke-width="2.2" stroke-linecap="round" stroke-linejoin="round"/>
<path d="M41.2498 74.3638C53.5717 74.3638 63.5606 73.6984 63.5606 72.8775C63.5606 72.0567 53.5717 71.3913 41.2498 71.3913C28.9279 71.3913 18.939 72.0567 18.939 72.8775C18.939 73.6984 28.9279 74.3638 41.2498 74.3638Z" stroke="#00BD78" stroke-width="2.2" stroke-linecap="round" stroke-linejoin="round"/>
</svg>
