<svg width="32" height="32" viewBox="0 0 32 32" fill="none" xmlns="http://www.w3.org/2000/svg">
<path d="M4 8.00033H29.3333L25.3333 21.3337H8L4 8.00033ZM4 8.00033L3 4.66699M14.6667 26.0003C14.6667 26.5308 14.456 27.0395 14.0809 27.4145C13.7058 27.7896 13.1971 28.0003 12.6667 28.0003C12.1362 28.0003 11.6275 27.7896 11.2525 27.4145C10.8774 27.0395 10.6667 26.5308 10.6667 26.0003M22.6667 26.0003C22.6667 26.5308 22.456 27.0395 22.0809 27.4145C21.7058 27.7896 21.1971 28.0003 20.6667 28.0003C20.1362 28.0003 19.6275 27.7896 19.2525 27.4145C18.8774 27.0395 18.6667 26.5308 18.6667 26.0003" stroke="#00BD78" stroke-width="1" stroke-linecap="round" stroke-linejoin="round"/>
</svg>
