<svg width="83" height="82" viewBox="0 0 83 82" fill="none" xmlns="http://www.w3.org/2000/svg">
<path d="M17.3226 19.6321L8.98768 27.9637C8.65188 28.2987 8.45522 28.7484 8.43715 29.2224C8.41909 29.6964 8.58097 30.1597 8.8903 30.5193L40.3219 67.1716C40.4983 67.3779 40.7174 67.5436 40.9639 67.6571C41.2104 67.7707 41.4787 67.8295 41.7501 67.8295C42.0215 67.8295 42.2897 67.7707 42.5363 67.6571C42.7828 67.5436 43.0018 67.3779 43.1783 67.1716L74.6082 30.5193C74.9175 30.1597 75.0794 29.6964 75.0613 29.2224C75.0433 28.7484 74.8466 28.2987 74.5108 27.9637L61.9187 15.375H27.2378M9.29176 29.2979H75.0626M41.4084 66.625L24.6668 29.0416L28.0834 22.2083M28.0834 22.2083L41.7501 15.8875L55.4168 22.2083M28.0834 22.2083L25.087 19.4528M42.0918 66.625L58.8334 29.0416L55.4168 22.2083M55.4168 22.2083L61.9221 16.2291M21.233 7.59521L23.2061 13.6666H29.5902L24.4242 17.4198L26.3973 23.493L21.2313 19.7398L16.0653 23.493L18.0384 17.4198L12.8758 13.6666H19.2599L21.233 7.59521ZM60.277 52.866L62.2501 58.9375H68.6341L63.4698 62.6907L65.443 68.7621L60.277 65.0089L55.111 68.7621L57.0841 62.6907L51.9198 58.9375H58.3038L60.277 52.866Z" stroke="#00BD78" stroke-width="2.2" stroke-linecap="round" stroke-linejoin="round"/>
</svg>
