<svg width="130" height="23" viewBox="0 0 130 23" fill="none" xmlns="http://www.w3.org/2000/svg">
<path d="M0.6 22.02L2.52 21.54V1.06L0.6 0.579998V0.0999985H9.56C13.1013 0.0999985 15.64 0.686665 17.176 1.86C18.712 3.012 19.48 4.71867 19.48 6.98C19.48 9.24133 18.712 10.9587 17.176 12.132C15.64 13.284 13.1013 13.86 9.56 13.86H7.8V21.54L9.72 22.02V22.5H0.6V22.02ZM9.56 13.06C10.904 13.06 11.9813 12.548 12.792 11.524C13.624 10.5 14.04 8.98533 14.04 6.98C14.04 4.996 13.624 3.492 12.792 2.468C11.9813 1.42267 10.904 0.9 9.56 0.9H7.8V13.06H9.56ZM21.8738 22.02L23.7938 21.54V7.46L21.8738 6.98V6.5H26.0338C27.9538 6.5 28.9138 7.46 28.9138 9.38V21.54L30.8338 22.02V22.5H21.8738V22.02ZM26.0338 4.58C25.3938 4.58 24.8604 4.36667 24.4338 3.94C24.0071 3.51333 23.7938 2.98 23.7938 2.34C23.7938 1.7 24.0071 1.16667 24.4338 0.74C24.8604 0.313332 25.3938 0.0999985 26.0338 0.0999985C26.6738 0.0999985 27.2071 0.313332 27.6338 0.74C28.0604 1.16667 28.2738 1.7 28.2738 2.34C28.2738 2.98 28.0604 3.51333 27.6338 3.94C27.2071 4.36667 26.6738 4.58 26.0338 4.58ZM31.7888 22.02L34.3488 21.06L38.3168 15.972L32.9088 7.46L31.3087 6.98V6.5H35.6288C36.6528 6.5 37.4848 6.73467 38.1248 7.204C38.7648 7.652 39.3728 8.324 39.9488 9.22L41.5808 11.812L44.5888 7.94L42.1888 6.98V6.5H48.2688V6.98L45.7088 7.94L42.0608 12.58L47.7888 21.54L49.3888 22.02V22.5H45.0688C44.0448 22.5 43.2128 22.276 42.5728 21.828C41.9328 21.38 41.3248 20.6973 40.7488 19.78L38.8288 16.772L35.4688 21.06L37.8688 22.02V22.5H31.7888V22.02Z" fill="#3A3449"/>
<path d="M50.4988 22.02L52.4188 21.54V7.46L50.4988 6.98V6.5H53.3788C54.6374 6.5 55.6294 6.90533 56.3548 7.716C56.6321 8.036 56.8668 8.43067 57.0588 8.9C57.3788 8.30267 57.7201 7.82267 58.0828 7.46C59.0428 6.5 60.1414 6.02 61.3788 6.02C62.6161 6.02 63.7041 6.29733 64.6428 6.852C65.5814 7.38533 66.3068 8.12133 66.8188 9.06C67.1388 8.44133 67.4801 7.94 67.8428 7.556C68.8241 6.532 69.9228 6.02 71.1388 6.02C72.2694 6.02 73.2828 6.25467 74.1788 6.724C75.0961 7.19333 75.8001 7.83333 76.2908 8.644C76.8028 9.45467 77.0588 10.34 77.0588 11.3V21.54L78.9788 22.02V22.5H74.8188C72.8988 22.5 71.9388 21.54 71.9388 19.62V11.3C71.9388 9.91333 71.7254 8.87867 71.2988 8.196C70.8721 7.492 70.3921 7.14 69.8588 7.14C69.2401 7.14 68.6108 7.56667 67.9708 8.42C67.7148 8.82533 67.4907 9.252 67.2987 9.7V21.54L69.2188 22.02V22.5H60.2588V22.02L62.1788 21.54V11.3C62.1788 9.91333 61.9654 8.87867 61.5388 8.196C61.1121 7.492 60.6321 7.14 60.0988 7.14C59.4801 7.14 58.8508 7.56667 58.2108 8.42C57.9548 8.82533 57.7308 9.252 57.5388 9.7V21.54L59.4588 22.02V22.5H50.4988V22.02ZM87.145 22.98C85.2463 22.98 83.785 22.5747 82.761 21.764C81.737 20.9533 81.225 19.9187 81.225 18.66C81.225 17.828 81.4063 17.0067 81.769 16.196C81.9183 15.812 82.1103 15.46 82.345 15.14C83.2197 14.9267 84.169 14.7347 85.193 14.564C87.497 14.18 89.5343 13.9453 91.305 13.86V12.9C91.305 10.532 91.017 8.9 90.441 8.004C89.865 7.108 88.9797 6.66 87.785 6.66C87.337 6.66 86.953 6.71333 86.633 6.82L86.185 6.98V11.78L85.769 11.876C85.4277 11.9187 85.1397 11.94 84.905 11.94C84.1797 11.94 83.593 11.7267 83.145 11.3C82.7183 10.852 82.505 10.2653 82.505 9.54C82.505 8.55867 82.9957 7.72667 83.977 7.044C84.9797 6.36133 86.4623 6.02 88.425 6.02C90.089 6.02 91.5183 6.31867 92.713 6.916C93.929 7.492 94.8463 8.30267 95.465 9.348C96.105 10.372 96.425 11.556 96.425 12.9V21.54L98.345 22.02V22.5H95.465C94.185 22.5 93.193 22.1053 92.489 21.316C92.1903 20.996 91.9557 20.5907 91.785 20.1C91.4863 20.6333 91.1343 21.1133 90.729 21.54C89.769 22.5 88.5743 22.98 87.145 22.98ZM88.425 21.86C89.2143 21.86 89.929 21.4333 90.569 20.58C90.8037 20.26 91.049 19.8333 91.305 19.3V14.66C90.3237 14.66 89.385 14.7133 88.489 14.82C87.8277 14.9053 87.3797 14.9587 87.145 14.98C87.0383 15.2147 86.9317 15.5347 86.825 15.94C86.6117 16.7507 86.505 17.5507 86.505 18.34C86.505 19.5347 86.6863 20.42 87.049 20.996C87.4117 21.572 87.8703 21.86 88.425 21.86ZM100.28 22.02L102.2 21.54V7.46L100.28 6.98V6.5H103.16C104.419 6.5 105.411 6.90533 106.136 7.716C106.413 8.036 106.648 8.43067 106.84 8.9C107.16 8.43067 107.555 8.004 108.024 7.62C109.091 6.76667 110.285 6.34 111.608 6.34C112.739 6.34 113.581 6.60667 114.136 7.14C114.712 7.652 115 8.39867 115 9.38C115 10.1053 114.776 10.692 114.328 11.14C113.901 11.5667 113.325 11.78 112.6 11.78C112.301 11.78 112.003 11.7587 111.704 11.716L111.32 11.62V7.14C110.232 7.14 109.24 7.56667 108.344 8.42C107.917 8.84667 107.576 9.27333 107.32 9.7V21.54L109.24 22.02V22.5H100.28V22.02ZM125.069 22.98C123.661 22.98 122.434 22.724 121.389 22.212C120.365 21.7 119.575 20.996 119.021 20.1C118.466 19.204 118.189 18.1907 118.189 17.06V7.3H115.949V6.5H118.189V4.9C118.189 2.98 119.149 2.02 121.069 2.02H123.309V6.5H127.789V7.3H123.309V17.06C123.309 19.0227 123.511 20.3667 123.917 21.092C124.322 21.8173 124.919 22.18 125.709 22.18C126.477 22.18 127.149 21.8067 127.725 21.06C128.301 20.3133 128.589 19.3 128.589 18.02H129.389C129.389 19.5987 128.994 20.8253 128.205 21.7C127.415 22.5533 126.37 22.98 125.069 22.98Z" fill="#00BD78"/>
</svg>
