<svg width="56" height="56" viewBox="0 0 56 56" fill="none" xmlns="http://www.w3.org/2000/svg">
<path d="M21.5523 36.7909H14.4059V47.0304C14.4059 48.9601 14.2496 50.3644 13.9371 51.2435C13.6223 52.1204 13.0449 52.7216 12.2049 53.0472C11.3648 53.3727 10.017 53.5735 8.16116 53.6495V55.1928C10.3186 55.0408 13.6038 54.9649 18.0165 54.9649C22.9068 54.9649 26.6813 55.0408 29.3402 55.1928V53.6495C27.0568 53.5735 25.3888 53.3727 24.3361 53.0472C23.2834 52.7216 22.5562 52.1204 22.1546 51.2435C21.7531 50.3644 21.5523 48.9601 21.5523 47.0304V36.7909Z" fill="#3A3449"/>
<path d="M46.9069 21.4886H39.6472C39.9214 20.0414 40.0584 18.4623 40.0584 16.7514C40.0584 13.4413 39.6319 10.7205 38.7789 8.58904C37.928 6.45758 36.5681 4.85897 34.6992 3.79324C32.8305 2.7275 30.354 2.19462 27.2695 2.19462C25.6655 2.19462 24.462 2.37585 23.6589 2.73836C22.8557 3.103 22.3044 3.74872 22.0049 4.67555C21.7032 5.60456 21.5523 6.98391 21.5523 8.81368V21.4886H14.4059V8.81368C14.4059 6.88193 14.2496 5.47758 13.9371 4.60067C13.6223 3.72376 13.0449 3.12252 12.2049 2.79694C11.3648 2.46921 10.017 2.26842 8.16116 2.19462V0.651367C10.2927 0.801122 13.428 0.875999 17.5673 0.875999C19.5727 0.875999 21.7857 0.85104 24.2057 0.801122C26.626 0.751204 28.2865 0.726245 29.1872 0.726245C33.2244 0.726245 36.6354 1.36004 39.4202 2.62763C42.2029 3.89307 44.2899 5.6664 45.6812 7.94766C47.0724 10.2311 47.7681 12.8889 47.7681 15.9211C47.7681 17.8227 47.481 19.6785 46.9069 21.4886Z" fill="#3A3449"/>
<path d="M4.96512 31.4038C4.96512 31.8336 5.10187 31.9052 5.27117 31.9052C5.41117 31.9052 5.64559 31.8726 5.81489 31.7912C5.73349 31.6936 5.72698 31.5015 5.72698 31.1759V29.5968C5.88001 29.587 6.03303 29.587 6.20559 29.587H6.60931C7.84326 29.587 8.67675 28.8805 8.67675 27.8517C8.67675 26.8717 7.88233 26.1977 6.72326 26.1977H5.66838C5.34605 26.1977 5.02047 26.2401 4.88373 26.2726C4.94884 26.735 4.96512 27.0345 4.96512 27.4382V31.4038ZM5.7107 26.6536H6.65163C7.38745 26.6536 7.89861 27.1647 7.89861 27.9005C7.89861 28.6298 7.40373 29.1345 6.68419 29.1345H6.08187C5.9614 29.1345 5.84094 29.1345 5.72698 29.141V27.3177C5.72698 27.0996 5.71721 26.8717 5.7107 26.6536Z" fill="#3A3449"/>
<path d="M11.5874 31.4038C11.5874 31.8335 11.7339 31.9052 11.9032 31.9052C12.0562 31.9052 12.3004 31.8726 12.4795 31.7912C12.3655 31.6935 12.3493 31.5014 12.3493 31.1758V27.2917C12.3493 26.9107 12.333 26.507 12.2939 26.1652C11.9781 26.1652 11.6427 26.2075 11.506 26.2465C11.5711 26.7089 11.5874 27.0084 11.5874 27.4154V31.4038Z" fill="#3A3449"/>
<path d="M19.4275 26.1977C19.1019 26.7252 18.9554 26.9531 18.6233 27.3991L17.8289 28.4931L16.953 27.2917C16.6796 26.9107 16.3703 26.507 16.0707 26.1652C15.7061 26.1652 15.3642 26.2075 15.234 26.2465C15.6312 26.7024 15.8689 27.0084 16.1684 27.4154L17.2786 28.9293L15.4619 31.4103C15.3154 31.6219 15.26 31.7424 15.26 31.8075C15.26 31.8824 15.3251 31.9052 15.4065 31.9052C15.6247 31.9052 15.8265 31.8986 15.9405 31.8563C15.973 31.7358 16.1912 31.42 16.354 31.1856L17.6433 29.4242L19.0954 31.4038C19.4177 31.84 19.6554 31.9052 19.841 31.9052C20.02 31.9052 20.2707 31.8726 20.4075 31.7912C20.2219 31.6935 20.0689 31.5242 19.8149 31.1758L18.1935 28.9782L19.5805 27.0735C19.7986 26.7805 19.994 26.4745 20.1633 26.1652C19.8637 26.1652 19.6228 26.1749 19.4275 26.1977Z" fill="#3A3449"/>
<path d="M28.5893 31.4038C28.6446 31.8335 28.8139 31.9052 28.9865 31.9052C29.146 31.9052 29.4 31.8726 29.5595 31.7912C29.4293 31.6935 29.3902 31.5568 29.3349 31.1759L28.7911 27.2917C28.7325 26.9433 28.6674 26.5721 28.573 26.1749C28.2474 26.1749 27.9544 26.1814 27.7688 26.2075C27.6646 26.6698 27.5735 26.9759 27.4204 27.4056L26.1409 31.0228L24.7377 27.0996C24.6302 26.7968 24.4772 26.4745 24.2981 26.1749C23.9432 26.1749 23.6502 26.214 23.5037 26.2563C23.4972 26.6861 23.4646 27.0345 23.4223 27.4154C23.4223 27.4154 22.8395 31.4266 22.8395 31.6056C22.8395 31.8498 22.9437 31.9052 23.0739 31.9052C23.1977 31.9052 23.406 31.8726 23.5851 31.7912C23.52 31.7424 23.4972 31.6382 23.4972 31.5405C23.4972 31.4689 23.5135 31.3387 23.5297 31.1759L24.0409 27.448L25.5223 31.4038C25.6786 31.8173 25.8218 31.9052 26.0107 31.9052C26.1865 31.9052 26.3428 31.8889 26.4893 31.8075C26.4893 31.7098 26.5544 31.4754 26.6586 31.1759L28.0195 27.448L28.5893 31.4038Z" fill="#3A3449"/>
<path d="M36.2176 31.4038C36.3869 31.8335 36.5725 31.9052 36.7516 31.9052C36.9144 31.9052 37.1651 31.8726 37.3116 31.7912C37.1651 31.6935 37.0674 31.508 36.9372 31.1759L35.4069 27.2917C35.2507 26.9107 35.0879 26.5135 34.9186 26.1749C34.5865 26.1749 34.2707 26.214 34.1404 26.2466C34.0265 26.6926 33.8897 27.0996 33.7595 27.4154L32.1869 31.4038C32.1218 31.5828 32.099 31.6935 32.099 31.7684C32.099 31.8726 32.1707 31.9052 32.2586 31.9052C32.3888 31.9052 32.6004 31.8726 32.7795 31.7912C32.7795 31.661 32.8283 31.4689 32.9423 31.1759L33.3069 30.2121H35.7455L36.2176 31.4038ZM34.6516 27.4154L35.5665 29.7563H33.4827L34.5148 27.0735C34.5637 27.1777 34.6027 27.2917 34.6516 27.4154Z" fill="#3A3449"/>
<path d="M39.9684 31.4038C39.9684 31.8336 40.1084 31.9052 40.2777 31.9052C40.4144 31.9052 40.6521 31.8726 40.8214 31.7912C40.74 31.6936 40.7335 31.5015 40.7335 31.1759V29.5545C40.8865 29.548 41.0396 29.548 41.2089 29.548H41.7135L42.8791 31.3875C43.1396 31.8401 43.3675 31.9052 43.553 31.9052C43.7223 31.9052 43.9437 31.8726 44.087 31.7912C43.9177 31.687 43.7712 31.4852 43.5628 31.1531L42.4656 29.4405C43.2372 29.2061 43.7158 28.6136 43.7158 27.8354C43.7158 26.8619 42.9442 26.1977 41.8014 26.1977H40.6196C40.3102 26.2075 40.0172 26.2401 39.8903 26.2726C39.9521 26.735 39.9684 27.0345 39.9684 27.4382V31.4038ZM40.7172 26.6536H41.7363C42.4493 26.6536 42.9377 27.155 42.9377 27.8843C42.9377 28.5973 42.4656 29.0922 41.7689 29.0922H41.0884C40.9679 29.0922 40.8442 29.0922 40.7335 29.1019V27.3177C40.7335 27.0996 40.7237 26.8717 40.7172 26.6536Z" fill="#3A3449"/>
<path d="M50.5401 26.6535C50.9633 26.6535 51.035 26.5624 51.035 26.4484C51.035 26.3605 51.0122 26.214 50.9308 26.1001C50.8331 26.1814 50.6312 26.1977 50.3057 26.1977H47.4373C47.0564 26.1977 46.6494 26.214 46.3108 26.2563C46.3108 26.4256 46.3499 26.6047 46.3922 26.7089C46.8447 26.6601 47.154 26.6535 47.5578 26.6535H48.2708C48.2968 26.9205 48.2968 27.1387 48.2968 27.4154V31.4038C48.2968 31.8335 48.4499 31.9052 48.6192 31.9052C48.7754 31.9052 49.0164 31.8726 49.1954 31.7912C49.0815 31.6935 49.0587 31.5014 49.0587 31.1759V27.2917C49.0587 27.0735 49.0489 26.8619 49.0424 26.6535H50.5401Z" fill="#3A3449"/>
</svg>
