<svg width="130" height="24" viewBox="0 0 130 24" fill="none" xmlns="http://www.w3.org/2000/svg">
<g clip-path="url(#clip0_4801_89)">
<path d="M11.0882 5.30917C9.31363 5.30917 7.6117 6.01413 6.35687 7.26898C5.10202 8.5238 4.39706 10.2257 4.39706 12.0003C4.39706 13.775 5.10202 15.4769 6.35687 16.7317C7.6117 17.9866 9.31363 18.6915 11.0882 18.6915H15.9632C17.1775 18.6915 18.1618 19.6758 18.1618 20.8901C18.1618 22.1042 17.1775 23.0886 15.9632 23.0886H10.9927C10.9666 23.0886 10.9406 23.0882 10.9147 23.0872C8.0367 23.0423 5.28619 21.8794 3.24767 19.8409C1.16822 17.7615 0 14.9411 0 12.0003C0 9.05956 1.16822 6.23922 3.24767 4.15978C5.28619 2.12127 8.0367 0.958463 10.9147 0.913466C10.9406 0.912564 10.9666 0.912109 10.9927 0.912109H15.9632C17.1775 0.912109 18.1618 1.89643 18.1618 3.11064C18.1618 4.32486 17.1775 5.30917 15.9632 5.30917H11.0882Z" fill="#3A3449"/>
<path fill-rule="evenodd" clip-rule="evenodd" d="M20.551 0.912109C21.7652 0.912109 22.7496 1.89642 22.7496 3.11064V13.8165C22.7496 15.0307 21.7652 16.015 20.551 16.015C19.3369 16.015 18.3525 15.0307 18.3525 13.8165V3.11064C18.3525 1.89642 19.3369 0.912109 20.551 0.912109Z" fill="#3A3449"/>
<path fill-rule="evenodd" clip-rule="evenodd" d="M18.3525 20.8899C18.3525 19.6757 19.3369 18.6914 20.5511 18.6914H31.8305C33.0447 18.6914 34.029 19.6757 34.029 20.8899C34.029 22.1041 33.0447 23.0885 31.8305 23.0885H20.5511C19.3369 23.0885 18.3525 22.1041 18.3525 20.8899Z" fill="#3A3449"/>
<path fill-rule="evenodd" clip-rule="evenodd" d="M36.4192 0.912109C37.6334 0.912109 38.6178 1.89643 38.6178 3.11064V20.8901C38.6178 22.1042 37.6334 23.0886 36.4192 23.0886C35.2051 23.0886 34.2207 22.1042 34.2207 20.8901V3.11064C34.2207 1.89642 35.2051 0.912109 36.4192 0.912109Z" fill="#3A3449"/>
<path d="M49.8968 5.30917C48.1221 5.30917 46.4203 6.01413 45.1654 7.26898C43.9105 8.5238 43.2057 10.2257 43.2057 12.0003C43.2057 13.775 43.9105 15.4769 45.1654 16.7317C46.4203 17.9866 48.1221 18.6915 49.8968 18.6915H54.7718C55.986 18.6915 56.9704 19.6758 56.9704 20.8901C56.9704 22.1042 55.986 23.0886 54.7718 23.0886H49.8012C49.7751 23.0886 49.7492 23.0882 49.7232 23.0872C46.8453 23.0423 44.0948 21.8794 42.0563 19.8409C39.9769 17.7615 38.8086 14.9411 38.8086 12.0003C38.8086 9.05956 39.9769 6.23922 42.0563 4.15978C44.0948 2.12127 46.8453 0.958463 49.7232 0.913466C49.7492 0.912564 49.7751 0.912109 49.8012 0.912109H54.7718C55.986 0.912109 56.9704 1.89643 56.9704 3.11064C56.9704 4.32486 55.986 5.30917 54.7718 5.30917H49.8968Z" fill="#3A3449"/>
<path fill-rule="evenodd" clip-rule="evenodd" d="M74.9198 1.84124C75.6208 2.83254 75.3857 4.20455 74.3944 4.90573L66.5562 10.4498C65.5649 11.151 64.1928 10.9158 63.4916 9.92448C62.7906 8.93319 63.0257 7.56118 64.017 6.86002L71.8552 1.3159C72.8465 0.61474 74.2185 0.849942 74.9198 1.84124Z" fill="#3A3449"/>
<path fill-rule="evenodd" clip-rule="evenodd" d="M74.9198 22.1599C75.6208 21.1685 75.3857 19.7965 74.3944 19.0954L66.5562 13.5513C65.5649 12.8501 64.1928 13.0853 63.4916 14.0766C62.7906 15.0679 63.0257 16.4399 64.017 17.1411L71.8552 22.6853C72.8465 23.3863 74.2185 23.1511 74.9198 22.1599Z" fill="#3A3449"/>
<path fill-rule="evenodd" clip-rule="evenodd" d="M59.3606 0.912109C60.5748 0.912109 61.5592 1.89642 61.5592 3.11063V20.8901C61.5592 22.1042 60.5748 23.0886 59.3606 23.0886C58.1465 23.0886 57.1621 22.1042 57.1621 20.8901V3.11063C57.1621 1.89642 58.1465 0.912109 59.3606 0.912109Z" fill="#3A3449"/>
<path fill-rule="evenodd" clip-rule="evenodd" d="M77.7132 7.98535C78.9273 7.98535 79.9117 8.96966 79.9117 10.1839V20.8898C79.9117 22.1039 78.9273 23.0883 77.7132 23.0883C76.499 23.0883 75.5146 22.1039 75.5146 20.8898V10.1839C75.5146 8.96966 76.499 7.98535 77.7132 7.98535Z" fill="#00BD78"/>
<path d="M86.7187 5.30925C86.712 5.3093 86.7052 5.30934 86.6985 5.30934H77.7132C76.499 5.30934 75.5146 4.32503 75.5146 3.11081C75.5146 1.89661 76.499 0.912297 77.7132 0.912297L86.6694 0.912296C86.6792 0.912172 86.6887 0.912109 86.6985 0.912109C88.4477 0.912109 90.1253 1.607 91.3622 2.84391C92.5991 4.08082 93.2941 5.75845 93.2941 7.50772C93.2941 9.25696 92.5991 10.9346 91.3622 12.1715C90.5499 12.9838 89.5476 13.5624 88.4596 13.8638L92.7632 19.5352C93.4971 20.5023 93.308 21.8815 92.3407 22.6156C91.3735 23.3495 89.9944 23.1605 89.2604 22.1931L82.4804 13.2583C82.2588 12.9749 82.1051 12.6358 82.0441 12.2654C82.0225 12.1354 82.0129 12.0041 82.0148 11.8733C82.0198 11.5219 82.1072 11.1905 82.2584 10.8975C82.3876 10.6464 82.5673 10.4167 82.7952 10.2247C82.9702 10.0769 83.1686 9.95587 83.384 9.86808C83.3938 9.86414 83.4034 9.86028 83.4131 9.85649C83.6802 9.75202 83.9612 9.70273 84.2405 9.70638H86.6753C86.683 9.70631 86.6908 9.70627 86.6985 9.70627C87.2816 9.70627 87.8408 9.47464 88.2531 9.06233C88.6653 8.65002 88.897 8.09081 88.897 7.50772C88.897 6.92461 88.6653 6.3654 88.2531 5.95309C87.8455 5.5456 87.2946 5.31458 86.7187 5.30925Z" fill="#00BD78"/>
<path d="M99.3103 17.2637C98.3961 16.3494 97.8824 15.1095 97.8824 13.8165V3.11064C97.8824 1.89643 96.898 0.912109 95.6839 0.912109C94.4697 0.912109 93.4854 1.89643 93.4854 3.11064V13.8165C93.4854 16.2756 94.4623 18.634 96.201 20.3729C97.94 22.1117 100.298 23.0886 102.757 23.0886C105.217 23.0886 107.575 22.1117 109.314 20.3729C111.053 18.634 112.029 16.2756 112.029 13.8165C112.029 13.8157 112.029 13.8148 112.029 13.814V3.11064C112.029 1.89643 111.045 0.912109 109.831 0.912109C108.617 0.912109 107.632 1.89643 107.632 3.11064V13.8165C107.632 13.8172 107.632 13.8179 107.632 13.8186C107.632 15.1108 107.118 16.3499 106.205 17.2637C105.29 18.1779 104.05 18.6915 102.757 18.6915C101.464 18.6915 100.225 18.1779 99.3103 17.2637Z" fill="#00BD78"/>
<path fill-rule="evenodd" clip-rule="evenodd" d="M114.419 11.6182C115.633 11.6182 116.618 12.6025 116.618 13.8167V20.8902C116.618 22.1044 115.633 23.0888 114.419 23.0888C113.205 23.0888 112.221 22.1044 112.221 20.8902V13.8167C112.221 12.6025 113.205 11.6182 114.419 11.6182Z" fill="#00BD78"/>
<path fill-rule="evenodd" clip-rule="evenodd" d="M127.801 0.912109C129.015 0.912109 130 1.89642 130 3.11063V10.1841C130 11.3984 129.015 12.3827 127.801 12.3827C126.587 12.3827 125.603 11.3984 125.603 10.1841V3.11063C125.603 1.89642 126.587 0.912109 127.801 0.912109Z" fill="#00BD78"/>
<path fill-rule="evenodd" clip-rule="evenodd" d="M129.124 22.6466C128.154 23.3769 126.775 23.1824 126.045 22.2122L112.663 4.43289C111.933 3.46277 112.127 2.0844 113.097 1.35421C114.067 0.624016 115.446 0.818509 116.176 1.78862L129.558 19.568C130.288 20.5381 130.094 21.9165 129.124 22.6466Z" fill="#00BD78"/>
</g>
<defs>
<clipPath id="clip0_4801_89">
<rect width="130" height="22.1765" fill="white" transform="translate(0 0.912109)"/>
</clipPath>
</defs>
</svg>
