<svg width="81" height="44" viewBox="0 0 81 44" fill="none" xmlns="http://www.w3.org/2000/svg">
<g clip-path="url(#clip0_479_42995)">
<path d="M28.625 14H53.9583L49.9583 27.3333H32.625L28.625 14ZM28.625 14L27.625 10.6667M39.2917 32C39.2917 32.5304 39.081 33.0391 38.7059 33.4142C38.3308 33.7893 37.8221 34 37.2917 34C36.7612 34 36.2525 33.7893 35.8775 33.4142C35.5024 33.0391 35.2917 32.5304 35.2917 32M47.2917 32C47.2917 32.5304 47.081 33.0391 46.7059 33.4142C46.3308 33.7893 45.8221 34 45.2917 34C44.7612 34 44.2525 33.7893 43.8775 33.4142C43.5024 33.0391 43.2917 32.5304 43.2917 32" stroke="#00BD78" stroke-width="1.5" stroke-linecap="round" stroke-linejoin="round"/>
</g>
<defs>
<clipPath id="clip0_479_42995">
<rect width="32" height="32" fill="white" transform="translate(24.625 6)"/>
</clipPath>
</defs>
</svg>
