<svg width="33" height="32" viewBox="0 0 33 32" fill="none" xmlns="http://www.w3.org/2000/svg">
<g clip-path="url(#clip0_5801_22218)">
<path d="M4.33398 8.00033H29.6673L25.6673 21.3337H8.33398L4.33398 8.00033ZM4.33398 8.00033L3.33398 4.66699M15.0007 26.0003C15.0007 26.5308 14.7899 27.0395 14.4149 27.4145C14.0398 27.7896 13.5311 28.0003 13.0007 28.0003C12.4702 28.0003 11.9615 27.7896 11.5864 27.4145C11.2114 27.0395 11.0007 26.5308 11.0007 26.0003M23.0007 26.0003C23.0007 26.5308 22.7899 27.0395 22.4149 27.4145C22.0398 27.7896 21.5311 28.0003 21.0007 28.0003C20.4702 28.0003 19.9615 27.7896 19.5864 27.4145C19.2114 27.0395 19.0007 26.5308 19.0007 26.0003" stroke="#00BD78" stroke-width="1.5" stroke-linecap="round" stroke-linejoin="round"/>
</g>
<defs>
<clipPath id="clip0_5801_22218">
<rect width="32" height="32" fill="white" transform="translate(0.333984)"/>
</clipPath>
</defs>
</svg>
