<svg width="80" height="44" viewBox="0 0 80 44" fill="none" xmlns="http://www.w3.org/2000/svg">
<path d="M27.6102 11.2887C26.7911 11.2887 26.0056 11.6141 25.4265 12.1932C24.8473 12.7724 24.522 13.5579 24.522 14.377C24.522 15.196 24.8473 15.9815 25.4265 16.5607C26.0056 17.1398 26.7911 17.4652 27.6102 17.4652H29.8602C30.4206 17.4652 30.8749 17.9195 30.8749 18.4799C30.8749 19.0403 30.4206 19.4946 29.8602 19.4946H27.5661C27.554 19.4946 27.5421 19.4944 27.5301 19.494C26.2018 19.4733 24.9323 18.9365 23.9915 17.9957C23.0317 17.0359 22.4926 15.7342 22.4926 14.377C22.4926 13.0197 23.0317 11.718 23.9915 10.7582C24.9323 9.81738 26.2018 9.2807 27.5301 9.25993C27.5421 9.25952 27.554 9.25931 27.5661 9.25931H29.8602C30.4206 9.25931 30.8749 9.71361 30.8749 10.274C30.8749 10.8344 30.4206 11.2887 29.8602 11.2887H27.6102Z" fill="#3A3449"/>
<path fill-rule="evenodd" clip-rule="evenodd" d="M31.978 9.25931C32.5383 9.25931 32.9927 9.71361 32.9927 10.274V15.2152C32.9927 15.7756 32.5383 16.2299 31.978 16.2299C31.4176 16.2299 30.9633 15.7756 30.9633 15.2152V10.274C30.9633 9.71361 31.4176 9.25931 31.978 9.25931Z" fill="#3A3449"/>
<path fill-rule="evenodd" clip-rule="evenodd" d="M30.9633 18.4801C30.9633 17.9197 31.4176 17.4654 31.978 17.4654H37.1838C37.7442 17.4654 38.1986 17.9197 38.1986 18.4801C38.1986 19.0405 37.7442 19.4948 37.1838 19.4948H31.978C31.4176 19.4948 30.9633 19.0405 30.9633 18.4801Z" fill="#3A3449"/>
<path fill-rule="evenodd" clip-rule="evenodd" d="M39.3012 9.25931C39.8616 9.25931 40.3159 9.71361 40.3159 10.274V18.4799C40.3159 19.0403 39.8616 19.4946 39.3012 19.4946C38.7408 19.4946 38.2865 19.0403 38.2865 18.4799V10.274C38.2865 9.71361 38.7408 9.25931 39.3012 9.25931Z" fill="#3A3449"/>
<path d="M45.5218 11.2887C44.7027 11.2887 43.9173 11.6141 43.3381 12.1932C42.7589 12.7724 42.4336 13.5579 42.4336 14.377C42.4336 15.196 42.7589 15.9815 43.3381 16.5607C43.9173 17.1398 44.7027 17.4652 45.5218 17.4652H47.7718C48.3322 17.4652 48.7865 17.9195 48.7865 18.4799C48.7865 19.0403 48.3322 19.4946 47.7718 19.4946H45.4777C45.4656 19.4946 45.4537 19.4944 45.4417 19.494C44.1134 19.4733 42.844 18.9365 41.9031 17.9957C40.9434 17.0359 40.4042 15.7342 40.4042 14.377C40.4042 13.0197 40.9434 11.718 41.9031 10.7582C42.844 9.81738 44.1134 9.2807 45.4417 9.25993C45.4537 9.25952 45.4656 9.25931 45.4777 9.25931H47.7718C48.3322 9.25931 48.7865 9.71361 48.7865 10.274C48.7865 10.8344 48.3322 11.2887 47.7718 11.2887H45.5218Z" fill="#3A3449"/>
<path fill-rule="evenodd" clip-rule="evenodd" d="M57.0711 9.68814C57.3947 10.1457 57.2861 10.7789 56.8286 11.1025L53.211 13.6613C52.7535 13.9849 52.1202 13.8764 51.7966 13.4189C51.473 12.9613 51.5815 12.3281 52.039 12.0045L55.6567 9.44567C56.1142 9.12206 56.7474 9.23062 57.0711 9.68814Z" fill="#3A3449"/>
<path fill-rule="evenodd" clip-rule="evenodd" d="M57.0711 19.0659C57.3947 18.6083 57.2861 17.9751 56.8286 17.6515L53.211 15.0927C52.7535 14.769 52.1202 14.8776 51.7966 15.3351C51.473 15.7926 51.5815 16.4259 52.039 16.7495L55.6567 19.3083C56.1142 19.6319 56.7474 19.5234 57.0711 19.0659Z" fill="#3A3449"/>
<path fill-rule="evenodd" clip-rule="evenodd" d="M49.8896 9.25931C50.45 9.25931 50.9043 9.71361 50.9043 10.274V18.4799C50.9043 19.0403 50.45 19.4946 49.8896 19.4946C49.3292 19.4946 48.8749 19.0403 48.8749 18.4799V10.274C48.8749 9.71361 49.3292 9.25931 49.8896 9.25931Z" fill="#3A3449"/>
<path fill-rule="evenodd" clip-rule="evenodd" d="M23.7873 25.0385C24.5672 25.0385 25.1996 25.6708 25.1996 26.4508V33.328C25.1996 34.108 24.5672 34.7403 23.7873 34.7403C23.0073 34.7403 22.375 34.108 22.375 33.328V26.4508C22.375 25.6708 23.0073 25.0385 23.7873 25.0385Z" fill="#00BD78"/>
<path d="M29.5722 23.3194C29.5679 23.3194 29.5635 23.3195 29.5592 23.3195H23.7873C23.0073 23.3195 22.375 22.6872 22.375 21.9072C22.375 21.1272 23.0073 20.4949 23.7873 20.4949L29.5405 20.4949C29.5468 20.4948 29.5529 20.4948 29.5592 20.4948C30.6829 20.4948 31.7605 20.9412 32.5551 21.7357C33.3496 22.5303 33.796 23.6079 33.796 24.7316C33.796 25.8553 33.3496 26.933 32.5551 27.7275C32.0333 28.2493 31.3894 28.621 30.6905 28.8146L33.455 32.4578C33.9265 33.0791 33.805 33.965 33.1836 34.4366C32.5623 34.908 31.6764 34.7866 31.2049 34.1652L26.8496 28.4256C26.7073 28.2436 26.6085 28.0258 26.5693 27.7879C26.5555 27.7043 26.5493 27.62 26.5506 27.5359C26.5538 27.3103 26.6099 27.0974 26.707 26.9092C26.79 26.7478 26.9055 26.6003 27.0519 26.477C27.1642 26.382 27.2917 26.3043 27.4301 26.2479C27.4364 26.2453 27.4425 26.2429 27.4488 26.2404C27.6203 26.1733 27.8009 26.1417 27.9803 26.144H29.5443C29.5493 26.1439 29.5543 26.1439 29.5592 26.1439C29.9338 26.1439 30.293 25.9951 30.5579 25.7303C30.8226 25.4654 30.9715 25.1062 30.9715 24.7316C30.9715 24.3571 30.8226 23.9978 30.5579 23.733C30.296 23.4712 29.9421 23.3228 29.5722 23.3194Z" fill="#00BD78"/>
<path d="M37.6604 30.9986C37.0731 30.4113 36.7431 29.6148 36.7431 28.7842V21.9071C36.7431 21.1271 36.1108 20.4948 35.3309 20.4948C34.5509 20.4948 33.9186 21.1271 33.9186 21.9071V28.7842C33.9186 30.3639 34.5461 31.8789 35.663 32.9959C36.7801 34.1128 38.295 34.7404 39.8747 34.7404C41.4544 34.7404 42.9693 34.1128 44.0864 32.9959C45.2033 31.8789 45.8309 30.3639 45.8309 28.7842C45.8309 28.7837 45.8309 28.7832 45.8309 28.7826V21.9071C45.8309 21.1271 45.1985 20.4948 44.4186 20.4948C43.6386 20.4948 43.0063 21.1271 43.0063 21.9071V28.7842C43.0063 28.7847 43.0063 28.7852 43.0063 28.7856C43.0059 29.6157 42.6761 30.4116 42.089 30.9986C41.5018 31.5859 40.7053 31.9158 39.8747 31.9158C39.0442 31.9158 38.2476 31.5859 37.6604 30.9986Z" fill="#00BD78"/>
<path fill-rule="evenodd" clip-rule="evenodd" d="M47.3659 27.3723C48.1458 27.3723 48.7782 28.0046 48.7782 28.7846V33.3284C48.7782 34.1084 48.1458 34.7407 47.3659 34.7407C46.5859 34.7407 45.9536 34.1084 45.9536 33.3284V28.7846C45.9536 28.0046 46.5859 27.3723 47.3659 27.3723Z" fill="#00BD78"/>
<path fill-rule="evenodd" clip-rule="evenodd" d="M55.9627 20.4948C56.7426 20.4948 57.375 21.1271 57.375 21.9071V26.4509C57.375 27.2309 56.7426 27.8632 55.9627 27.8632C55.1827 27.8632 54.5504 27.2309 54.5504 26.4509V21.9071C54.5504 21.1271 55.1827 20.4948 55.9627 20.4948Z" fill="#00BD78"/>
<path fill-rule="evenodd" clip-rule="evenodd" d="M56.8117 34.4565C56.1886 34.9256 55.3032 34.8007 54.834 34.1774L46.2377 22.7564C45.7685 22.1333 45.8934 21.2478 46.5167 20.7788C47.1398 20.3097 48.0253 20.4347 48.4944 21.0578L57.0907 32.4788C57.5599 33.102 57.435 33.9875 56.8117 34.4565Z" fill="#00BD78"/>
</svg>
