<svg width="90" height="23" viewBox="0 0 90 23" fill="none" xmlns="http://www.w3.org/2000/svg">
<path d="M39.102 12.9568C39.102 13.2043 39.0794 13.4429 39.048 13.6767L39.0529 13.6845H39.047H36.5788H31.9194C32.1718 14.9044 33.0636 15.7324 34.3188 15.7324C35.1173 15.7324 35.8864 15.3808 36.2842 14.763H38.9321C38.3005 16.6212 36.4167 17.8155 34.3188 17.8155C31.4912 17.8155 29.3952 15.75 29.3952 12.9568C29.3952 10.1468 31.5639 8.09798 34.2403 8.09798C36.9334 8.09798 39.102 10.1468 39.102 12.9568ZM60.6233 12.9587C60.6233 15.7687 58.8858 17.8185 56.339 17.8185C55.2007 17.8185 54.2696 17.3608 53.696 16.7352H53.4819V21.2355H51.0039V8.28263H53.4819V9.18328H53.695L53.696 9.18229C54.3158 8.4879 55.2812 8.09995 56.339 8.09995C58.8858 8.09995 60.6233 10.1487 60.6233 12.9587ZM44.0502 17.8175C45.1207 17.8175 46.0567 17.4413 46.6863 16.7342H46.8729V17.6348H49.3499V8.28263H46.8729V13.5618C46.8729 14.7237 46.0489 15.5153 44.8801 15.5153C43.7113 15.5153 42.8873 14.7237 42.8873 13.5618V8.28263H40.4102V13.9379C40.4102 16.2274 41.9071 17.8175 44.0502 17.8175ZM58.1452 12.9587C58.1452 11.4776 57.1591 10.4021 55.7998 10.4021C54.4493 10.4021 53.4819 11.4776 53.4819 12.9587C53.4819 14.4398 54.4493 15.5153 55.7998 15.5153C57.1591 15.5153 58.1452 14.4398 58.1452 12.9587ZM28.1125 12.9568C28.1125 10.1468 26.3751 8.09798 23.8283 8.09798C22.69 8.09798 21.7589 8.55469 21.1853 9.18033H20.9712V4.68004H18.4932V17.6329H20.9712V16.7332H21.1843H21.1853C21.805 17.4286 22.7705 17.8155 23.8283 17.8155C26.3751 17.8155 28.1125 15.7677 28.1125 12.9568ZM25.6345 12.9568C25.6345 14.4379 24.6484 15.5133 23.2891 15.5133C21.9386 15.5133 20.9712 14.4379 20.9712 12.9568C20.9712 11.4757 21.9386 10.4002 23.2891 10.4002C24.6484 10.4002 25.6345 11.4757 25.6345 12.9568ZM32.0029 11.9147H36.4934C36.1565 10.8697 35.3118 10.1821 34.2403 10.1821C33.1756 10.1821 32.3368 10.8697 32.0029 11.9147Z" fill="#3A3449"/>
<path fill-rule="evenodd" clip-rule="evenodd" d="M77.5516 15.8208C77.5516 15.918 77.5428 16.0123 77.53 16.1046L77.532 16.1075H77.529H76.5567H74.72C74.8192 16.5878 75.1718 16.9139 75.6658 16.9139C75.9801 16.9139 76.2836 16.7754 76.4408 16.5318H77.4838C77.2353 17.2645 76.4928 17.736 75.6658 17.736C74.5511 17.736 73.7251 16.9218 73.7251 15.8208C73.7251 14.7129 74.5796 13.9055 75.6344 13.9055C76.6961 13.9055 77.5516 14.7129 77.5516 15.8208ZM76.6018 10.079C76.6018 11.1869 75.7601 11.9942 74.6846 11.9942C73.617 11.9942 72.7753 11.18 72.7753 10.079C72.7753 8.97111 73.6298 8.16377 74.6846 8.16377C75.7464 8.16377 76.6018 8.97111 76.6018 10.079ZM72.2911 10.079C72.2911 10.1762 72.2823 10.2705 72.2695 10.3628L72.2715 10.3658H72.2695H71.2962H69.4595C69.5597 10.8471 69.9113 11.1731 70.4053 11.1731C70.7196 11.1731 71.0231 11.0346 71.1803 10.7911H72.2233C71.9748 11.5228 71.2323 11.9942 70.4053 11.9942C69.2906 11.9942 68.4646 11.18 68.4646 10.079C68.4646 8.97111 69.3191 8.16377 70.3749 8.16377C71.4356 8.16377 72.2911 8.97111 72.2911 10.079ZM66.8332 9.72935L66.2184 9.63506C65.8785 9.58497 65.743 9.49363 65.743 9.31978C65.743 9.09585 65.9168 8.94852 66.3323 8.94852C66.7477 8.94852 66.9727 9.14398 66.9727 9.38755H67.948C67.948 8.9112 67.4569 8.16377 66.3323 8.16377C65.3207 8.16377 64.7942 8.70593 64.7942 9.31978C64.7942 9.93462 65.2431 10.2617 66.0013 10.3845L66.5847 10.4738C66.9894 10.5387 67.0709 10.6801 67.0709 10.8588C67.0709 11.0376 66.9 11.2095 66.4148 11.2095C65.9296 11.2095 65.7224 10.9669 65.7224 10.7704H64.7471C64.7471 11.0396 65.0417 11.9942 66.4148 11.9942C67.4912 11.9942 68.0206 11.4658 68.0206 10.8588C68.0206 10.2008 67.5914 9.84524 66.8332 9.72935ZM69.816 18.4873H70.5674H71.2156H71.2284C71.7647 18.4873 72.1487 18.0768 72.1487 17.5484V17.3539C71.8629 17.625 71.4769 17.7645 71.0771 17.7645C70.6136 17.7645 70.1618 17.5769 69.8278 17.2577C69.4369 16.8835 69.2513 16.3786 69.2513 15.8424C69.2513 15.0164 69.6834 14.2896 70.481 14.0155C70.6764 13.9478 70.8817 13.9134 71.0889 13.9134C71.4788 13.9134 71.858 14.0528 72.1428 14.3131V13.9861H73.1259V17.5179C73.1259 17.9462 73.011 18.3724 72.7488 18.7162C72.3785 19.2024 71.8128 19.4047 71.2156 19.4047H71.2088H71.2019H69.816V18.4873ZM69.4929 9.66845H71.2628C71.1302 9.25594 70.7972 8.98486 70.3749 8.98486C69.9545 8.98486 69.6245 9.25594 69.4929 9.66845ZM75.6246 10.079C75.6246 9.49461 75.2297 9.0713 74.6846 9.0713C74.1445 9.0713 73.7516 9.49461 73.7516 10.079C73.7516 10.6624 74.1445 11.0867 74.6846 11.0867C75.2386 11.0867 75.6246 10.6722 75.6246 10.079ZM87.5894 17.4295L86.1004 13.9861H87.1543L88.0824 16.2274L88.9595 13.9861H89.9996L87.8202 19.3192H86.8105L87.5894 17.4295ZM66.7065 16.8481C67.2771 16.8481 67.6818 16.3884 67.6818 15.8296C67.6818 15.2727 67.2732 14.8239 66.7065 14.8239C66.1417 14.8239 65.7184 15.2707 65.7184 15.8296C65.7184 16.3904 66.1378 16.8481 66.7065 16.8481ZM67.6396 14.2896V13.9861H68.6227V17.6918H67.6396V17.3628C67.3537 17.6279 66.9658 17.7645 66.5729 17.7645C66.1103 17.7645 65.6575 17.5769 65.3246 17.2577C64.9337 16.8835 64.7471 16.3786 64.7471 15.8424C64.7471 15.0173 65.1792 14.2905 65.9767 14.0155C66.1722 13.9478 66.3785 13.9134 66.5857 13.9134C66.9697 13.9134 67.3518 14.0381 67.6396 14.2896ZM71.2097 16.8481C71.7804 16.8481 72.185 16.3884 72.185 15.8296C72.185 15.2727 71.7764 14.8239 71.2097 14.8239C70.645 14.8239 70.2227 15.2707 70.2227 15.8296C70.2227 16.3904 70.6411 16.8481 71.2097 16.8481ZM84.1272 16.8285C83.586 16.8285 83.2099 16.4042 83.2099 15.8208C83.2099 15.2364 83.586 14.813 84.1272 14.813C84.5299 14.813 84.8324 15.0095 84.9434 15.3866H85.954C85.8224 14.486 85.0495 13.9055 84.1272 13.9055C83.0724 13.9055 82.2326 14.7129 82.2326 15.8208C82.2326 16.9218 83.0586 17.736 84.1272 17.736C85.0613 17.736 85.8254 17.1074 85.954 16.2234H84.9473C84.854 16.5957 84.5378 16.8285 84.1272 16.8285ZM80.23 13.9055C79.8076 13.9055 79.3647 14.0538 79.1172 14.3318V13.9772H78.1399V17.6633H79.1172V15.5831C79.1172 15.1254 79.4413 14.813 79.9019 14.813C80.3626 14.813 80.6877 15.1254 80.6877 15.5831V17.6633H81.6639V15.4348C81.6639 14.5321 81.0736 13.9055 80.23 13.9055ZM74.7524 15.4102H76.5233C76.3907 14.9977 76.0577 14.7266 75.6344 14.7266C75.215 14.7266 74.885 14.9977 74.7524 15.4102Z" fill="#00BD78"/>
<path fill-rule="evenodd" clip-rule="evenodd" d="M0 11.1093L4.17618 8.62638L4.17814 8.62834L4.62404 8.36217C4.64663 8.34842 4.66922 8.33762 4.69083 8.32682C4.92066 8.22467 5.15442 8.26789 5.35871 8.45253L5.61309 8.68334C5.82032 8.86996 6.05605 8.91219 6.28882 8.80513L6.2898 8.80415C6.31828 8.79236 6.34578 8.77763 6.37329 8.76093L15.0164 3.6242V0L4.26162 6.39195C4.00724 6.5432 3.74304 6.51374 3.51518 6.30748L3.25981 6.07667C3.05159 5.88809 2.81293 5.84684 2.57819 5.95783C2.55167 5.96961 2.52613 5.98336 2.49962 5.99908L0 7.48412V11.1093ZM15.0164 5.06307V8.68825L9.44551 11.9991C9.41702 12.0149 9.38952 12.0296 9.36104 12.0424H9.36006C9.12728 12.1494 8.89156 12.1072 8.68531 11.9206L8.42994 11.6898C8.22565 11.5051 7.9919 11.4619 7.76207 11.565C7.74046 11.5748 7.71787 11.5866 7.69626 11.6004L7.53814 11.6937L7.53715 11.6927L0 16.1724V12.5472L5.57085 9.2363C5.59934 9.21961 5.62684 9.20487 5.65532 9.19309L5.65729 9.19211C5.88908 9.08603 6.1248 9.12827 6.33203 9.31488L6.58642 9.54569C6.79071 9.73033 7.02446 9.77257 7.25429 9.67042C7.2759 9.6606 7.29849 9.64881 7.32009 9.63506L7.49296 9.53292L7.49394 9.5339L15.0164 5.06307ZM15.0164 10.1261V13.7513L12.5167 15.2364C12.4902 15.2521 12.4647 15.2658 12.4382 15.2776C12.2034 15.3886 11.9648 15.3474 11.7565 15.1588L11.5012 14.928C11.2733 14.7217 11.0091 14.6922 10.7547 14.8435L0 21.2354V17.6112L8.64307 12.4735C8.67058 12.4578 8.69808 12.4431 8.72656 12.4303H8.72754C8.96031 12.3233 9.19603 12.3655 9.40327 12.5521L9.65765 12.7829C9.86194 12.9676 10.0957 13.0108 10.3255 12.9086C10.3471 12.8978 10.3697 12.887 10.3923 12.8733L10.853 12.5992L10.8539 12.6002L15.0164 10.1261Z" fill="#00BD78"/>
</svg>
