<svg width="56" height="56" viewBox="0 0 56 56" fill="none" xmlns="http://www.w3.org/2000/svg">
<path d="M21.5524 36.7909H14.4059V47.0304C14.4059 48.9601 14.2497 50.3644 13.9371 51.2435C13.6223 52.1204 13.0449 52.7216 12.2049 53.0472C11.3649 53.3727 10.0171 53.5735 8.16122 53.6495V55.1928C10.3187 55.0408 13.6039 54.9649 18.0166 54.9649C22.9068 54.9649 26.6814 55.0408 29.3402 55.1928V53.6495C27.0569 53.5735 25.3889 53.3727 24.3362 53.0472C23.2834 52.7216 22.5563 52.1204 22.1547 51.2435C21.7531 50.3644 21.5524 48.9601 21.5524 47.0304V36.7909Z" fill="#3A3449"/>
<path d="M46.907 21.4886H39.6472C39.9215 20.0414 40.0585 18.4623 40.0585 16.7514C40.0585 13.4413 39.632 10.7205 38.7789 8.58904C37.9281 6.45758 36.5682 4.85897 34.6993 3.79324C32.8305 2.7275 30.354 2.19462 27.2696 2.19462C25.6655 2.19462 24.4621 2.37585 23.6589 2.73836C22.8558 3.103 22.3045 3.74872 22.005 4.67555C21.7032 5.60456 21.5524 6.98391 21.5524 8.81368V21.4886H14.4059V8.81368C14.4059 6.88193 14.2497 5.47758 13.9371 4.60067C13.6223 3.72376 13.0449 3.12252 12.2049 2.79694C11.3649 2.46921 10.0171 2.26842 8.16122 2.19462V0.651367C10.2928 0.801122 13.4281 0.875999 17.5673 0.875999C19.5728 0.875999 21.7857 0.85104 24.2058 0.801122C26.626 0.751204 28.2865 0.726245 29.1873 0.726245C33.2245 0.726245 36.6355 1.36004 39.4202 2.62763C42.2029 3.89307 44.29 5.6664 45.6813 7.94766C47.0725 10.2311 47.7682 12.8889 47.7682 15.9211C47.7682 17.8227 47.4811 19.6785 46.907 21.4886Z" fill="#3A3449"/>
<path d="M4.96518 31.4038C4.96518 31.8336 5.10193 31.9052 5.27123 31.9052C5.41123 31.9052 5.64565 31.8726 5.81495 31.7912C5.73355 31.6936 5.72704 31.5015 5.72704 31.1759V29.5968C5.88007 29.587 6.03309 29.587 6.20565 29.587H6.60937C7.84332 29.587 8.67681 28.8805 8.67681 27.8517C8.67681 26.8717 7.88239 26.1977 6.72332 26.1977H5.66844C5.34611 26.1977 5.02053 26.2401 4.88379 26.2726C4.94891 26.735 4.96518 27.0345 4.96518 27.4382V31.4038ZM5.71076 26.6536H6.65169C7.38751 26.6536 7.89867 27.1647 7.89867 27.9005C7.89867 28.6298 7.40379 29.1345 6.68425 29.1345H6.08193C5.96146 29.1345 5.841 29.1345 5.72704 29.141V27.3177C5.72704 27.0996 5.71728 26.8717 5.71076 26.6536Z" fill="#3A3449"/>
<path d="M11.5875 31.4038C11.5875 31.8335 11.734 31.9052 11.9033 31.9052C12.0563 31.9052 12.3005 31.8726 12.4796 31.7912C12.3656 31.6935 12.3493 31.5014 12.3493 31.1758V27.2917C12.3493 26.9107 12.333 26.507 12.294 26.1652C11.9782 26.1652 11.6428 26.2075 11.5061 26.2465C11.5712 26.7089 11.5875 27.0084 11.5875 27.4154V31.4038Z" fill="#3A3449"/>
<path d="M19.4275 26.1977C19.1019 26.7252 18.9554 26.9531 18.6233 27.3991L17.8289 28.4931L16.9531 27.2917C16.6796 26.9107 16.3703 26.507 16.0708 26.1652C15.7061 26.1652 15.3643 26.2075 15.234 26.2465C15.6312 26.7024 15.8689 27.0084 16.1685 27.4154L17.2787 28.9293L15.4619 31.4103C15.3154 31.6219 15.2601 31.7424 15.2601 31.8075C15.2601 31.8824 15.3252 31.9052 15.4066 31.9052C15.6247 31.9052 15.8266 31.8986 15.9405 31.8563C15.9731 31.7358 16.1912 31.42 16.354 31.1856L17.6433 29.4242L19.0954 31.4038C19.4178 31.84 19.6554 31.9052 19.841 31.9052C20.0201 31.9052 20.2708 31.8726 20.4075 31.7912C20.2219 31.6935 20.0689 31.5242 19.815 31.1758L18.1936 28.9782L19.5805 27.0735C19.7987 26.7805 19.994 26.4745 20.1633 26.1652C19.8638 26.1652 19.6229 26.1749 19.4275 26.1977Z" fill="#3A3449"/>
<path d="M28.5893 31.4038C28.6447 31.8335 28.814 31.9052 28.9865 31.9052C29.1461 31.9052 29.4 31.8726 29.5596 31.7912C29.4293 31.6935 29.3903 31.5568 29.3349 31.1759L28.7912 27.2917C28.7326 26.9433 28.6675 26.5721 28.5731 26.1749C28.2475 26.1749 27.9545 26.1814 27.7689 26.2075C27.6647 26.6698 27.5735 26.9759 27.4205 27.4056L26.141 31.0228L24.7377 27.0996C24.6303 26.7968 24.4772 26.4745 24.2982 26.1749C23.9433 26.1749 23.6503 26.214 23.5038 26.2563C23.4972 26.6861 23.4647 27.0345 23.4224 27.4154C23.4224 27.4154 22.8396 31.4266 22.8396 31.6056C22.8396 31.8498 22.9438 31.9052 23.074 31.9052C23.1977 31.9052 23.4061 31.8726 23.5852 31.7912C23.52 31.7424 23.4972 31.6382 23.4972 31.5405C23.4972 31.4689 23.5135 31.3387 23.5298 31.1759L24.041 27.448L25.5224 31.4038C25.6786 31.8173 25.8219 31.9052 26.0107 31.9052C26.1866 31.9052 26.3428 31.8889 26.4893 31.8075C26.4893 31.7098 26.5545 31.4754 26.6586 31.1759L28.0196 27.448L28.5893 31.4038Z" fill="#3A3449"/>
<path d="M36.2177 31.4038C36.387 31.8335 36.5726 31.9052 36.7516 31.9052C36.9144 31.9052 37.1651 31.8726 37.3116 31.7912C37.1651 31.6935 37.0675 31.508 36.9372 31.1759L35.407 27.2917C35.2507 26.9107 35.0879 26.5135 34.9186 26.1749C34.5865 26.1749 34.2707 26.214 34.1405 26.2466C34.0265 26.6926 33.8898 27.0996 33.7596 27.4154L32.187 31.4038C32.1219 31.5828 32.0991 31.6935 32.0991 31.7684C32.0991 31.8726 32.1707 31.9052 32.2586 31.9052C32.3889 31.9052 32.6005 31.8726 32.7796 31.7912C32.7796 31.661 32.8284 31.4689 32.9423 31.1759L33.307 30.2121H35.7456L36.2177 31.4038ZM34.6516 27.4154L35.5665 29.7563H33.4828L34.5149 27.0735C34.5637 27.1777 34.6028 27.2917 34.6516 27.4154Z" fill="#3A3449"/>
<path d="M39.9684 31.4038C39.9684 31.8336 40.1085 31.9052 40.2778 31.9052C40.4145 31.9052 40.6522 31.8726 40.8215 31.7912C40.7401 31.6936 40.7336 31.5015 40.7336 31.1759V29.5545C40.8866 29.548 41.0396 29.548 41.2089 29.548H41.7136L42.8792 31.3875C43.1396 31.8401 43.3675 31.9052 43.5531 31.9052C43.7224 31.9052 43.9438 31.8726 44.0871 31.7912C43.9178 31.687 43.7712 31.4852 43.5629 31.1531L42.4657 29.4405C43.2373 29.2061 43.7159 28.6136 43.7159 27.8354C43.7159 26.8619 42.9443 26.1977 41.8015 26.1977H40.6196C40.3103 26.2075 40.0173 26.2401 39.8903 26.2726C39.9522 26.735 39.9684 27.0345 39.9684 27.4382V31.4038ZM40.7173 26.6536H41.7364C42.4494 26.6536 42.9378 27.155 42.9378 27.8843C42.9378 28.5973 42.4657 29.0922 41.7689 29.0922H41.0885C40.968 29.0922 40.8443 29.0922 40.7336 29.1019V27.3177C40.7336 27.0996 40.7238 26.8717 40.7173 26.6536Z" fill="#3A3449"/>
<path d="M50.5401 26.6535C50.9634 26.6535 51.035 26.5624 51.035 26.4484C51.035 26.3605 51.0122 26.214 50.9308 26.1001C50.8332 26.1814 50.6313 26.1977 50.3057 26.1977H47.4374C47.0564 26.1977 46.6495 26.214 46.3108 26.2563C46.3108 26.4256 46.3499 26.6047 46.3922 26.7089C46.8448 26.6601 47.1541 26.6535 47.5578 26.6535H48.2708C48.2969 26.9205 48.2969 27.1387 48.2969 27.4154V31.4038C48.2969 31.8335 48.4499 31.9052 48.6192 31.9052C48.7755 31.9052 49.0164 31.8726 49.1955 31.7912C49.0815 31.6935 49.0588 31.5014 49.0588 31.1759V27.2917C49.0588 27.0735 49.049 26.8619 49.0425 26.6535H50.5401Z" fill="#3A3449"/>
</svg>
