<svg width="56" height="57" viewBox="0 0 56 57" fill="none" xmlns="http://www.w3.org/2000/svg">
<path d="M21.5524 37.2909H14.4059V47.5304C14.4059 49.4601 14.2497 50.8644 13.9371 51.7435C13.6223 52.6204 13.0449 53.2216 12.2049 53.5472C11.3649 53.8727 10.0171 54.0735 8.16122 54.1495V55.6928C10.3187 55.5408 13.6039 55.4649 18.0166 55.4649C22.9068 55.4649 26.6814 55.5408 29.3402 55.6928V54.1495C27.0569 54.0735 25.3889 53.8727 24.3362 53.5472C23.2834 53.2216 22.5563 52.6204 22.1547 51.7435C21.7531 50.8644 21.5524 49.4601 21.5524 47.5304V37.2909Z" fill="#3A3449"/>
<path d="M46.907 21.9886H39.6472C39.9215 20.5414 40.0585 18.9623 40.0585 17.2514C40.0585 13.9413 39.632 11.2205 38.7789 9.08904C37.9281 6.95758 36.5682 5.35897 34.6993 4.29324C32.8305 3.2275 30.354 2.69462 27.2696 2.69462C25.6655 2.69462 24.4621 2.87585 23.6589 3.23836C22.8558 3.603 22.3045 4.24872 22.005 5.17555C21.7032 6.10456 21.5524 7.48391 21.5524 9.31368V21.9886H14.4059V9.31368C14.4059 7.38193 14.2497 5.97758 13.9371 5.10067C13.6223 4.22376 13.0449 3.62252 12.2049 3.29694C11.3649 2.96921 10.0171 2.76842 8.16122 2.69462V1.15137C10.2928 1.30112 13.4281 1.376 17.5673 1.376C19.5728 1.376 21.7857 1.35104 24.2058 1.30112C26.626 1.2512 28.2865 1.22624 29.1873 1.22624C33.2245 1.22624 36.6355 1.86004 39.4202 3.12763C42.2029 4.39307 44.29 6.1664 45.6813 8.44766C47.0725 10.7311 47.7682 13.3889 47.7682 16.4211C47.7682 18.3227 47.4811 20.1785 46.907 21.9886Z" fill="#3A3449"/>
<path d="M4.96518 31.9038C4.96518 32.3336 5.10193 32.4052 5.27123 32.4052C5.41123 32.4052 5.64565 32.3726 5.81495 32.2912C5.73355 32.1936 5.72704 32.0015 5.72704 31.6759V30.0968C5.88007 30.087 6.03309 30.087 6.20565 30.087H6.60937C7.84332 30.087 8.67681 29.3805 8.67681 28.3517C8.67681 27.3717 7.88239 26.6977 6.72332 26.6977H5.66844C5.34611 26.6977 5.02053 26.7401 4.88379 26.7726C4.94891 27.235 4.96518 27.5345 4.96518 27.9382V31.9038ZM5.71076 27.1536H6.65169C7.38751 27.1536 7.89867 27.6647 7.89867 28.4005C7.89867 29.1298 7.40379 29.6345 6.68425 29.6345H6.08193C5.96146 29.6345 5.841 29.6345 5.72704 29.641V27.8177C5.72704 27.5996 5.71728 27.3717 5.71076 27.1536Z" fill="#3A3449"/>
<path d="M11.5875 31.9038C11.5875 32.3335 11.734 32.4052 11.9033 32.4052C12.0563 32.4052 12.3005 32.3726 12.4796 32.2912C12.3656 32.1935 12.3493 32.0014 12.3493 31.6758V27.7917C12.3493 27.4107 12.333 27.007 12.294 26.6652C11.9782 26.6652 11.6428 26.7075 11.5061 26.7465C11.5712 27.2089 11.5875 27.5084 11.5875 27.9154V31.9038Z" fill="#3A3449"/>
<path d="M19.4275 26.6977C19.1019 27.2252 18.9554 27.4531 18.6233 27.8991L17.8289 28.9931L16.9531 27.7917C16.6796 27.4107 16.3703 27.007 16.0708 26.6652C15.7061 26.6652 15.3643 26.7075 15.234 26.7465C15.6312 27.2024 15.8689 27.5084 16.1685 27.9154L17.2787 29.4293L15.4619 31.9103C15.3154 32.1219 15.2601 32.2424 15.2601 32.3075C15.2601 32.3824 15.3252 32.4052 15.4066 32.4052C15.6247 32.4052 15.8266 32.3986 15.9405 32.3563C15.9731 32.2358 16.1912 31.92 16.354 31.6856L17.6433 29.9242L19.0954 31.9038C19.4178 32.34 19.6554 32.4052 19.841 32.4052C20.0201 32.4052 20.2708 32.3726 20.4075 32.2912C20.2219 32.1935 20.0689 32.0242 19.815 31.6758L18.1936 29.4782L19.5805 27.5735C19.7987 27.2805 19.994 26.9745 20.1633 26.6652C19.8638 26.6652 19.6229 26.6749 19.4275 26.6977Z" fill="#3A3449"/>
<path d="M28.5893 31.9038C28.6447 32.3335 28.814 32.4052 28.9865 32.4052C29.1461 32.4052 29.4 32.3726 29.5596 32.2912C29.4293 32.1935 29.3903 32.0568 29.3349 31.6759L28.7912 27.7917C28.7326 27.4433 28.6675 27.0721 28.5731 26.6749C28.2475 26.6749 27.9545 26.6814 27.7689 26.7075C27.6647 27.1698 27.5735 27.4759 27.4205 27.9056L26.141 31.5228L24.7377 27.5996C24.6303 27.2968 24.4772 26.9745 24.2982 26.6749C23.9433 26.6749 23.6503 26.714 23.5038 26.7563C23.4972 27.1861 23.4647 27.5345 23.4224 27.9154C23.4224 27.9154 22.8396 31.9266 22.8396 32.1056C22.8396 32.3498 22.9438 32.4052 23.074 32.4052C23.1977 32.4052 23.4061 32.3726 23.5852 32.2912C23.52 32.2424 23.4972 32.1382 23.4972 32.0405C23.4972 31.9689 23.5135 31.8387 23.5298 31.6759L24.041 27.948L25.5224 31.9038C25.6786 32.3173 25.8219 32.4052 26.0107 32.4052C26.1866 32.4052 26.3428 32.3889 26.4893 32.3075C26.4893 32.2098 26.5545 31.9754 26.6586 31.6759L28.0196 27.948L28.5893 31.9038Z" fill="#3A3449"/>
<path d="M36.2177 31.9038C36.387 32.3335 36.5726 32.4052 36.7516 32.4052C36.9144 32.4052 37.1651 32.3726 37.3116 32.2912C37.1651 32.1935 37.0675 32.008 36.9372 31.6759L35.407 27.7917C35.2507 27.4107 35.0879 27.0135 34.9186 26.6749C34.5865 26.6749 34.2707 26.714 34.1405 26.7466C34.0265 27.1926 33.8898 27.5996 33.7596 27.9154L32.187 31.9038C32.1219 32.0828 32.0991 32.1935 32.0991 32.2684C32.0991 32.3726 32.1707 32.4052 32.2586 32.4052C32.3889 32.4052 32.6005 32.3726 32.7796 32.2912C32.7796 32.161 32.8284 31.9689 32.9423 31.6759L33.307 30.7121H35.7456L36.2177 31.9038ZM34.6516 27.9154L35.5665 30.2563H33.4828L34.5149 27.5735C34.5637 27.6777 34.6028 27.7917 34.6516 27.9154Z" fill="#3A3449"/>
<path d="M39.9684 31.9038C39.9684 32.3336 40.1085 32.4052 40.2778 32.4052C40.4145 32.4052 40.6522 32.3726 40.8215 32.2912C40.7401 32.1936 40.7336 32.0015 40.7336 31.6759V30.0545C40.8866 30.048 41.0396 30.048 41.2089 30.048H41.7136L42.8792 31.8875C43.1396 32.3401 43.3675 32.4052 43.5531 32.4052C43.7224 32.4052 43.9438 32.3726 44.0871 32.2912C43.9178 32.187 43.7712 31.9852 43.5629 31.6531L42.4657 29.9405C43.2373 29.7061 43.7159 29.1136 43.7159 28.3354C43.7159 27.3619 42.9443 26.6977 41.8015 26.6977H40.6196C40.3103 26.7075 40.0173 26.7401 39.8903 26.7726C39.9522 27.235 39.9684 27.5345 39.9684 27.9382V31.9038ZM40.7173 27.1536H41.7364C42.4494 27.1536 42.9378 27.655 42.9378 28.3843C42.9378 29.0973 42.4657 29.5922 41.7689 29.5922H41.0885C40.968 29.5922 40.8443 29.5922 40.7336 29.6019V27.8177C40.7336 27.5996 40.7238 27.3717 40.7173 27.1536Z" fill="#3A3449"/>
<path d="M50.5401 27.1535C50.9634 27.1535 51.035 27.0624 51.035 26.9484C51.035 26.8605 51.0122 26.714 50.9308 26.6001C50.8332 26.6814 50.6313 26.6977 50.3057 26.6977H47.4374C47.0564 26.6977 46.6495 26.714 46.3108 26.7563C46.3108 26.9256 46.3499 27.1047 46.3922 27.2089C46.8448 27.1601 47.1541 27.1535 47.5578 27.1535H48.2708C48.2969 27.4205 48.2969 27.6387 48.2969 27.9154V31.9038C48.2969 32.3335 48.4499 32.4052 48.6192 32.4052C48.7755 32.4052 49.0164 32.3726 49.1955 32.2912C49.0815 32.1935 49.0588 32.0014 49.0588 31.6759V27.7917C49.0588 27.5735 49.049 27.3619 49.0425 27.1535H50.5401Z" fill="#3A3449"/>
</svg>
