<svg width="81" height="44" viewBox="0 0 81 44" fill="none" xmlns="http://www.w3.org/2000/svg">
<path d="M31.7083 9H27.375V13.3333M49.0417 9H53.375V13.3333M31.7083 35H27.375V30.6667M33.1528 30.6667V29.2222C33.1528 27.3068 33.9137 25.4698 35.2681 24.1153C36.6225 22.7609 38.4595 22 40.375 22M40.375 22C42.2905 22 44.1275 22.7609 45.4819 24.1153C46.8363 25.4698 47.5972 27.3068 47.5972 29.2222V30.6667M40.375 22C41.5243 22 42.6265 21.5435 43.4391 20.7308C44.2518 19.9181 44.7083 18.8159 44.7083 17.6667C44.7083 16.5174 44.2518 15.4152 43.4391 14.6025C42.6265 13.7899 41.5243 13.3333 40.375 13.3333C39.2257 13.3333 38.1235 13.7899 37.3109 14.6025C36.4982 15.4152 36.0417 16.5174 36.0417 17.6667C36.0417 18.8159 36.4982 19.9181 37.3109 20.7308C38.1235 21.5435 39.2257 22 40.375 22ZM49.0417 35H53.375V30.6667" stroke="#00BD78" stroke-width="1.5" stroke-linecap="round" stroke-linejoin="round"/>
</svg>
