<svg width="48" height="48" viewBox="0 0 48 48" fill="none" xmlns="http://www.w3.org/2000/svg">
<path d="M41.0917 41.0499C41.6789 40.4659 42.1457 39.7704 42.465 39.0036C42.7843 38.2368 42.9499 37.4139 42.9521 36.5823C42.9544 35.7508 42.7933 34.927 42.4781 34.1584C42.1629 33.3899 41.6999 32.6919 41.1158 32.1046C40.5317 31.5174 39.838 31.0525 39.0748 30.7368C38.3116 30.4211 37.4939 30.2609 36.6689 30.2653C35.8439 30.2697 35.028 30.4387 34.2681 30.7626C33.5083 31.0864 32.8196 31.5587 32.2417 32.1522C31.0867 33.3384 30.4435 34.9366 30.4522 36.5987C30.461 38.2607 31.121 39.852 32.2885 41.0257C33.4559 42.1995 35.0362 42.8606 36.6851 42.8652C38.334 42.8697 39.9179 42.2172 41.0917 41.0499ZM41.0917 41.0499L45 45M13.75 3H7.5V9.3M7.5 21.9V26.1M22.0833 3H26.25M22.0833 45H26.25M40.8333 21.9V26.1M34.5833 3H40.8333V9.3M13.75 45H7.5V38.7" stroke="#3A3449" stroke-width="2" stroke-linecap="round" stroke-linejoin="round"/>
</svg>
