<svg width="18" height="18" viewBox="0 0 18 18" fill="none" xmlns="http://www.w3.org/2000/svg">
<path d="M5.51369 11.0562L5.57471 10.7755L5.36296 10.5814L2.67239 8.11506C2.54046 7.97812 2.46758 7.74056 2.5096 7.41584C2.60149 7.23348 2.79639 7.07736 2.98284 7.025H3.0001H3.02662L3.05299 7.02219L6.57799 6.64719L6.86556 6.6166L6.98244 6.35208L8.3436 3.27157C8.40006 3.21859 8.43806 3.16086 8.46294 3.1111C8.47243 3.09211 8.48038 3.0736 8.48704 3.05593C8.63401 2.84496 8.83812 2.75 9.0001 2.75C9.08983 2.75 9.16133 2.7768 9.2098 2.81618C9.25255 2.85091 9.30861 2.92011 9.33012 3.07071L9.39145 3.5H9.54125L10.8678 6.50208L10.9846 6.7666L11.2722 6.79719L14.7972 7.17219L14.8236 7.175H14.8501H14.8783C15.1072 7.22498 15.2683 7.37939 15.3609 7.6107C15.4408 7.81065 15.3972 8.04582 15.2465 8.19645L15.6001 8.55L15.2465 8.19645L15.1814 8.26164L13.7667 9.52738L13.7564 9.53663L13.7465 9.54645C13.2832 10.0098 12.8642 10.4269 12.6001 10.625L12.3433 10.8176L12.4115 11.1312L13.1586 14.568C13.205 14.867 13.0948 15.0801 12.9428 15.1713L12.9207 15.1845L12.9001 15.2C12.8056 15.2709 12.6154 15.3083 12.3936 15.2536C12.3488 15.2122 12.3023 15.1827 12.2612 15.1622C12.2348 15.149 12.2093 15.1388 12.1857 15.1308L9.16972 13.4389L8.9251 13.3017L8.68047 13.4389L5.60547 15.1639L5.4572 15.2471C5.42613 15.249 5.38408 15.25 5.3251 15.25C5.19934 15.25 5.11366 15.2065 5.07865 15.1714L5.03513 15.1279L4.98234 15.0963C4.83035 15.0051 4.72016 14.792 4.76655 14.493L5.51369 11.0562Z" fill="#00BD78" stroke="#00BD78"/>
</svg>
