<svg width="18" height="18" viewBox="0 0 18 18" fill="none" xmlns="http://www.w3.org/2000/svg">
<path d="M2.3251 8.475L5.0251 10.95L4.2751 14.4C4.2001 14.85 4.3501 15.3 4.7251 15.525C4.8751 15.675 5.1001 15.75 5.3251 15.75C5.4751 15.75 5.6251 15.75 5.7751 15.675C5.7751 15.675 5.8501 15.675 5.8501 15.6L8.9251 13.875L12.0001 15.6C12.0001 15.6 12.0751 15.6 12.0751 15.675C12.4501 15.825 12.9001 15.825 13.2001 15.6C13.5751 15.375 13.7251 14.925 13.6501 14.475L12.9001 11.025C13.2001 10.8 13.6501 10.35 14.1001 9.9L15.5251 8.625L15.6001 8.55C15.9001 8.25 15.9751 7.8 15.8251 7.425C15.6751 7.05 15.3751 6.75 14.9251 6.675H14.8501L11.3251 6.3L9.9001 3.075C9.9001 3.075 9.9001 3 9.8251 3C9.7501 2.475 9.3751 2.25 9.0001 2.25C8.6251 2.25 8.2501 2.475 8.0251 2.85C8.0251 2.85 8.0251 2.925 7.9501 2.925L6.5251 6.15L3.0001 6.525H2.9251C2.5501 6.6 2.1751 6.9 2.0251 7.275C1.9501 7.725 2.0251 8.175 2.3251 8.475ZM9.0001 12.225V4.35L10.2751 7.2C10.3501 7.425 10.6501 7.575 10.8751 7.65L14.0251 8.025L11.7001 10.125C11.4751 10.275 11.4001 10.575 11.4751 10.875C11.4751 11.025 11.8501 12.525 12.0751 13.95L9.3751 12.375C9.2251 12.225 9.1501 12.225 9.0001 12.225Z" fill="#00BD78"/>
</svg>
